<?xml version="1.0" encoding="utf-8"?>
<!-- Generator: Adobe Illustrator 19.0.0, SVG Export Plug-In . SVG Version: 6.00 Build 0)  -->
<svg version="1.1" id="Layer_1" xmlns="http://www.w3.org/2000/svg" xmlns:xlink="http://www.w3.org/1999/xlink" x="0px" y="0px"
	 viewBox="-217 364 177 66" style="enable-background:new -217 364 177 66;" xml:space="preserve">
<style type="text/css">
	.st0{clip-path:url(#SVGID_2_);}
	.st1{fill:#CF0011;}
	.st2{fill:#FF8B00;}
	.st3{fill:#F9B101;}
	.st4{fill:#FAB701;}
</style>
<g>
	<defs>
		<rect id="SVGID_1_" x="-217" y="364" width="177" height="66"/>
	</defs>
	<clipPath id="SVGID_2_">
		<use xlink:href="#SVGID_1_"  style="overflow:visible;"/>
	</clipPath>
	<g class="st0">
		<rect x="-217" y="364" class="st1" width="177" height="66"/>
		<path class="st1" d="M-217,433.9v-48.7c3.8-2.1,7.7-4.2,11.1-2.7c3.4,1.5,6.3,6.5,9.2,6.6c2.9,0.1,5.7-4.8,9.6-7.3
			c3.9-2.5,8.9-2.6,12.2-1.2c3.3,1.3,4.7,4.1,8.4,6c3.6,1.9,9.3,2.9,13.8,2.6c4.4-0.4,7.6-2.1,9.8-1.6c2.3,0.5,3.7,3.4,7.5,1.7
			c3.8-1.7,9.9-8,13.9-8.2c4-0.2,5.8,5.8,9,6.3c3.2,0.6,7.8-4.2,10.8-5.7c3-1.5,4.4,0.3,8,1.9c3.6,1.7,9.5,3.2,13.6,4.3
			s6.5,1.8,9,1.6c2.5-0.2,5.1-1.4,8.6-2.2c3.5-0.8,8-1.1,11.9-1.3c3.9-0.3,7.3-0.5,10.7-0.7v48.7H-217z"/>
		<path class="st2" d="M-217,433.9v-36.5c4,0.4,8,0.8,11.7-0.4c3.7-1.2,7.2-4.1,10-3.8c2.8,0.3,4.8,3.7,8.5,3.8
			c3.7,0.1,8.9-3.2,12.4-3.4c3.5-0.2,5.3,2.7,8.6,3.4c3.3,0.8,8.1-0.6,12.3-1.3s7.6-0.9,10.3-1.1c2.7-0.2,4.7-0.3,8,0.9
			c3.3,1.2,8,3.6,11.4,4.1c3.4,0.6,5.7-0.8,9.6-1.6c3.9-0.8,9.5-1.1,13.3,0c3.7,1.1,5.6,3.5,8.6,3c3-0.4,7-3.7,10.6-5.5
			c3.6-1.8,6.6-2.2,10.4-1c3.8,1.2,8.3,4.1,12.3,3.8c4-0.3,7.4-3.9,10.4-4.6s5.8,1.5,8.6,3.7v36.5H-217z"/>
		<path class="st3" d="M-217,430v-24.4c3.7,2.3,7.4,4.5,11.4,4.4c4-0.1,8.4-2.6,11.1-3.5c2.7-0.9,3.7-0.2,7,0.2
			c3.3,0.5,8.8,0.7,13,0.5c4.2-0.2,7.2-0.8,10-2.3c2.7-1.5,5.2-3.9,8.7-3.8c3.5,0.1,8.1,2.7,12,3.3c3.9,0.6,7.1-0.7,10.7,0.6
			c3.5,1.3,7.4,5.3,10.7,4.5c3.3-0.8,6-6.5,9.2-7.9c3.2-1.5,6.9,1.3,10.2,3.2c3.3,1.9,6.3,3,9.3,2.9c3.1,0,6.3-1.2,10.2-1
			c3.9,0.2,8.6,1.7,12.4,1.7c3.8,0,6.9-1.5,10.1-1.7c3.2-0.2,6.6,1.1,10.1,1.1c3.5,0,7.2-1.1,10.8-2.2V430H-217z"/>
		<path class="st4" d="M-217,430v-12.2c4.3,1.1,8.6,2.1,11.6,1.9c3-0.2,4.6-1.5,7.5-1.7c2.9-0.2,6.9,0.8,11.3,1.1
			c4.4,0.3,9.1,0.1,12.2,0.4c3.1,0.3,4.6,1.1,7.9-0.2c3.3-1.4,8.5-5,12.3-5.1c3.8-0.1,6.4,3.3,9.2,5.7c2.9,2.4,6.1,3.9,10.2,2.2
			c4.2-1.7,9.3-6.7,12.5-7.3c3.3-0.6,4.7,3.2,7.9,4.9c3.2,1.7,8,1.2,12,1.3c4,0.2,7.2,1,10.8-0.6s7.8-5.6,11.6-4.8
			c3.8,0.9,7.3,6.7,10.2,6.6c2.9-0.1,5.3-6.1,8.2-8.3c3-2.2,6.6-0.6,10.3,0.7s7.5,2.2,11.3,3.2V430H-217z"/>
	</g>
</g>
</svg>
